<svg
      xmlns="http://www.w3.org/2000/svg"
      xmlnsXlink="http://www.w3.org/1999/xlink"
      className="c2_b"
      viewBox="0 0 257.7 251.7"
    >
      <g fill="none">
        <g strokeMiterlimit="10">
          <path
            fill="#040609"
            d="M243.4 235.7H14.3c-7.6 0-13.8-6.2-13.8-13.8V14.3C.5 6.7 6.7.5 14.3.5h229.1c7.6 0 13.8 6.2 13.8 13.8V222c0 7.6-6.2 13.7-13.8 13.7z"
          ></path>
          <path d="M82.8 235.7v9.6c0 3.3-3.3 5.9-7.3 5.9H39.6c-4 0-7.3-2.7-7.3-5.9v-9.6m193 0v9.6c0 3.3-3.3 5.9-7.3 5.9h-35.8c-4 0-7.3-2.7-7.3-5.9v-9.6M34.4 91.7h-4c-2.4 0-4.4-2-4.4-4.4V72.1c0-2.4 2-4.4 4.4-4.4h4c2.4 0 4.4 2 4.4 4.4v15.2c0 2.5-1.9 4.4-4.4 4.4z"></path>
          <use xlinkHref="#B"></use>
          <use y="38.4" xlinkHref="#B"></use>
          <path d="M32.4 168.5v23.8c0 6.2 5 11.1 11.1 11.1h170.7c6.2 0 11.1-5 11.1-11.1V43.9c0-6.2-5-11.1-11.1-11.1H43.5c-6.2 0-11.1 5-11.1 11.1v23.8M32.4 130.1v14.4m0-52.8v14.4"></path>
          <path
            strokeLinecap="round"
            strokeLinejoin="round"
            d="M97.5 118.1c0 17.9 14.6 32.5 32.5 32.5 14.2 0 26.3-9.1 30.7-21.9 1.2-3.3 1.8-6.9 1.8-10.6m-2.9 3.9c-.3-1.3-.8-2.6-1.5-3.8-.2-.5-.5-.9-.7-1.4-1.3-2.3-4.5-9.1-12.9-13l-2.9 3.2 1.4-4s-6.8-2.8-8.8-2.1l-.7 3.9-1-4s-4.7-.8-9.5.7l2 3.9c-.3-.1-2.7-.7-4.6 3.8l-17.4-3.6.7.4 14.2 7s-8.5 12.4-8.7 13.2c0 0-2.3 5.1 5 5.6 0 0 3.9-.3 14.6-4.8 0 0 1.3-.4 2.6-1.4-1.3 1-2.7 1.4-2.7 1.4s5.6 4.1 1.7 12.8c-2.2 4.9-7.2 5.9-11.1 5.9-11.2-4.2-19.1-15-19.1-27.7 0-16.5 13.4-29.9 29.9-29.9S160 101.5 160 118c-.1 1.4-.2 2.7-.4 4zm-32.9-5.8l-4.3 3.2s-1.3-1.6.4-3c0 .1 1.7-1.2 3.9-.2z"
          ></path>
        </g>
        <circle cx="129.5" cy="118.5" r="51.9"></circle>
        <path
          strokeMiterlimit="10"
          d="M130.1 66.1v22.2m0 62.4V170m51.9-52h-19.5m-65.1 0H78.1m88.7-36.7L151.1 97M107 141.1l-13.7 13.7m73.5 0L153 141m-44-44L93.3 81.3"
        ></path>
      </g>
      <defs>
        <path
          id="B"
          d="M34.4 130.1h-4c-2.4 0-4.4-2-4.4-4.4v-15.2c0-2.4 2-4.4 4.4-4.4h4c2.4 0 4.4 2 4.4 4.4v15.2c0 2.5-1.9 4.4-4.4 4.4z"
        ></path>
      </defs>
    </svg>